<svg id="Capa_1" data-name="Capa 1" xmlns="http://www.w3.org/2000/svg" viewBox="0 0 790.59 818.1"><defs><style>.cls-1,.cls-3{fill:#fff;}.cls-2{fill:#383838;}.cls-3{font-size:83.04px;font-family:BodoniSvtyTwoOSITCTT-Bold, "Bodoni 72 Oldstyle";font-weight:700;}</style></defs><path class="cls-1" d="M194,209c.09-11.72.16-23.44.28-35.15.2-19.59,12.45-31.78,31.95-31.82,15.08,0,30.15-.1,45.23,0a45.71,45.71,0,0,0,28-9.07c20.27-14.8,40.75-29.32,61-44.15C377,76.77,393.61,76.1,411.1,86.67,464.49,119,515.36,154.48,558.26,200.32c3.62,3.87,7.08,7.89,10.39,12,9,11.22,9.81,23.34,2.59,35.75-14.18,24.35-10.52,42.77,12.13,59.41,6.64,4.87,10.19,11.53,12.92,18.91a15.37,15.37,0,0,1,0,11.32c-5.7,22.37-12.64,44.23-24.67,64.21C542,451.16,499.24,482.45,443.8,497.16c-9.49,2.51-19.32,1.72-28.55,4.91-4.93,1.68-9.91,1-14.89.35h-6.68c-5,.69-10,1.34-14.9-.34C355,499.24,332.33,491.91,309.84,484a21.05,21.05,0,0,1-9.95.06C284,487.85,275.08,498.8,275,515c-.09,25.1-.15,50.21.13,75.31.14,13.07-4,23.82-15.92,29.93-11.33,5.82-22.64,4.29-33.22-2.81-13-8.73-26.08-17.36-31.27-33.39-2.43-2.3-1.21-5.25-1.22-7.87-.11-24.68-.07-49.37-.07-74V254.38C193.8,239.26,192.77,224.13,194,209Z"/><path class="cls-2" d="M541.94,299.69l.25-.07L508.55,190.69h-6.86l33.66,109h-86l33.66-109h-6.86l-33.78,109.4.27.09c4.79,18.12,25.2,31.75,49.71,31.75,24.73,0,45.31-13.87,49.86-32.24Z"/><path class="cls-2" d="M305.28,190.69h-6.86l33.66,109h-86l33.67-109h-6.86L239.23,299.62l.25.07h-.26c4.55,18.37,25.13,32.24,49.86,32.24,24.51,0,44.92-13.63,49.71-31.75l.27-.09Z"/><rect class="cls-2" x="379.46" y="167.08" width="4.88" height="335.62"/><rect class="cls-2" x="229.7" y="180.98" width="309.3" height="9.7"/><text class="cls-3" transform="translate(82.7 750.86)">ABOGADOS WEB</text></svg>